<svg width="512" height="512" viewBox="0 0 512 512" fill="none" xmlns="http://www.w3.org/2000/svg" xmlns:xlink="http://www.w3.org/1999/xlink" class=""><rect id="«r3a»" width="512" height="512" x="0" y="0" rx="102" fill="#E2E2E2" stroke="#FFFFFF" stroke-width="0" stroke-opacity="100%" paint-order="stroke"></rect><clipPath id="clip"><use xlink:href="#«r3a»"></use></clipPath><defs><linearGradient id="«r3b»" gradientUnits="userSpaceOnUse" gradientTransform="rotate(180)" style="transform-origin: center center;"><stop stop-color="#E2E2E2"></stop><stop offset="1" stop-color="#000000"></stop></linearGradient><radialGradient id="«r3c»" cx="0" cy="0" r="1" gradientUnits="userSpaceOnUse" gradientTransform="translate(256) rotate(90) scale(512)"><stop stop-color="white"></stop><stop offset="1" stop-color="white" stop-opacity="0"></stop></radialGradient></defs><svg xmlns="http://www.w3.org/2000/svg" viewBox="0 0 24 24" fill="#008fe2" width="352" height="352" x="85" y="80" alignment-baseline="middle" style="color: rgb(230, 230, 230);"><path d="M13.98 11.08h2.12a.19.19 0 0 0 .19-.19V9.01a.19.19 0 0 0-.19-.19h-2.12a.18.18 0 0 0-.18.18v1.9c0 .1.08.18.18.18m-2.95-5.43h2.12a.19.19 0 0 0 .18-.19V3.57a.19.19 0 0 0-.18-.18h-2.12a.18.18 0 0 0-.19.18v1.9c0 .1.09.18.19.18m0 2.71h2.12a.19.19 0 0 0 .18-.18V6.29a.19.19 0 0 0-.18-.18h-2.12a.18.18 0 0 0-.19.18v1.89c0 .1.09.18.19.18m-2.93 0h2.12a.19.19 0 0 0 .18-.18V6.29a.18.18 0 0 0-.18-.18H8.1a.18.18 0 0 0-.18.18v1.89c0 .1.08.18.18.18m-2.96 0h2.11a.19.19 0 0 0 .19-.18V6.29a.18.18 0 0 0-.19-.18H5.14a.19.19 0 0 0-.19.18v1.89c0 .1.08.18.19.18m5.89 2.72h2.12a.19.19 0 0 0 .18-.19V9.01a.19.19 0 0 0-.18-.19h-2.12a.18.18 0 0 0-.19.18v1.9c0 .1.09.18.19.18m-2.93 0h2.12a.18.18 0 0 0 .18-.19V9.01a.18.18 0 0 0-.18-.19H8.1a.18.18 0 0 0-.18.18v1.9c0 .1.08.18.18.18m-2.96 0h2.11a.18.18 0 0 0 .19-.19V9.01a.18.18 0 0 0-.18-.19H5.14a.19.19 0 0 0-.19.19v1.88c0 .1.08.19.19.19m-2.92 0h2.12a.18.18 0 0 0 .18-.19V9.01a.18.18 0 0 0-.18-.19H2.22a.18.18 0 0 0-.19.18v1.9c0 .1.08.18.19.18m21.54-1.19c-.06-.05-.67-.51-1.95-.51-.34 0-.68.03-1.01.09a3.77 3.77 0 0 0-1.72-2.57l-.34-.2-.23.33a4.6 4.6 0 0 0-.6 1.43c-.24.97-.1 1.88.4 2.66a4.7 4.7 0 0 1-1.75.42H.76a.75.75 0 0 0-.76.75 11.38 11.38 0 0 0 .7 4.06 6.03 6.03 0 0 0 2.4 3.12c1.18.73 3.1 1.14 5.28 1.14.98 0 1.96-.08 2.93-.26a12.25 12.25 0 0 0 3.82-1.4 10.5 10.5 0 0 0 2.61-2.13c1.25-1.42 2-3 2.55-4.4h.23c1.37 0 2.21-.55 2.68-1 .3-.3.55-.66.7-1.06l.1-.28Z"></path></svg></svg>