<svg width="512" height="512" viewBox="0 0 512 512" fill="none" xmlns="http://www.w3.org/2000/svg" xmlns:xlink="http://www.w3.org/1999/xlink" class=""><rect id="_r_g0_" width="512" height="512" x="0" y="0" rx="128" fill="url(#_r_g1_)" stroke="#FFFFFF" stroke-width="0" stroke-opacity="100%" paint-order="stroke"></rect><clipPath id="clip"><use xlink:href="#_r_g0_"></use></clipPath><defs><radialGradient id="_r_g1_" cx="50%" cy="50%" r="100%" fx="50%" fy="0%" gradientUnits="objectBoundingBox"><stop stop-color="#1D1D1D"></stop><stop offset="1" stop-color="#000000"></stop></radialGradient><radialGradient id="_r_g2_" cx="0" cy="0" r="1" gradientUnits="userSpaceOnUse" gradientTransform="translate(256) rotate(90) scale(512)"><stop stop-color="white"></stop><stop offset="1" stop-color="white" stop-opacity="0"></stop></radialGradient></defs><svg xmlns="http://www.w3.org/2000/svg" width="352" height="352" preserveAspectRatio="xMidYMid" viewBox="0 0 256 260" x="80" y="80" alignment-baseline="middle" style="color: rgb(230, 230, 230);"><path fill="#fff" d="M239.184 106.203a64.716 64.716 0 0 0-5.576-53.103C219.452 28.459 191 15.784 163.213 21.74A65.586 65.586 0 0 0 52.096 45.22a64.716 64.716 0 0 0-43.23 31.36c-14.31 24.602-11.061 55.634 8.033 76.74a64.665 64.665 0 0 0 5.525 53.102c14.174 24.65 42.644 37.324 70.446 31.36a64.72 64.72 0 0 0 48.754 21.744c28.481.025 53.714-18.361 62.414-45.481a64.767 64.767 0 0 0 43.229-31.36c14.137-24.558 10.875-55.423-8.083-76.483Zm-97.56 136.338a48.397 48.397 0 0 1-31.105-11.255l1.535-.87 51.67-29.825a8.595 8.595 0 0 0 4.247-7.367v-72.85l21.845 12.636c.218.111.37.32.409.563v60.367c-.056 26.818-21.783 48.545-48.601 48.601Zm-104.466-44.61a48.345 48.345 0 0 1-5.781-32.589l1.534.921 51.722 29.826a8.339 8.339 0 0 0 8.441 0l63.181-36.425v25.221a.87.87 0 0 1-.358.665l-52.335 30.184c-23.257 13.398-52.97 5.431-66.404-17.803ZM23.549 85.38a48.499 48.499 0 0 1 25.58-21.333v61.39a8.288 8.288 0 0 0 4.195 7.316l62.874 36.272-21.845 12.636a.819.819 0 0 1-.767 0L41.353 151.53c-23.211-13.454-31.171-43.144-17.804-66.405v.256Zm179.466 41.695-63.08-36.63L161.73 77.86a.819.819 0 0 1 .768 0l52.233 30.184a48.6 48.6 0 0 1-7.316 87.635v-61.391a8.544 8.544 0 0 0-4.4-7.213Zm21.742-32.69-1.535-.922-51.619-30.081a8.39 8.39 0 0 0-8.492 0L99.98 99.808V74.587a.716.716 0 0 1 .307-.665l52.233-30.133a48.652 48.652 0 0 1 72.236 50.391v.205ZM88.061 139.097l-21.845-12.585a.87.87 0 0 1-.41-.614V65.685a48.652 48.652 0 0 1 79.757-37.346l-1.535.87-51.67 29.825a8.595 8.595 0 0 0-4.246 7.367l-.051 72.697Zm11.868-25.58 28.138-16.217 28.188 16.218v32.434l-28.086 16.218-28.188-16.218-.052-32.434Z"></path></svg></svg>