<svg width="512" height="512" viewBox="0 0 512 512" fill="none" xmlns="http://www.w3.org/2000/svg" xmlns:xlink="http://www.w3.org/1999/xlink" class=""><rect id="«r3a»" width="512" height="512" x="0" y="0" rx="102" fill="url(#«r3b»)" stroke="#FFFFFF" stroke-width="0" stroke-opacity="100%" paint-order="stroke"></rect><clipPath id="clip"><use xlink:href="#«r3a»"></use></clipPath><defs><radialGradient id="«r3b»" cx="50%" cy="50%" r="100%" fx="50%" fy="0%" gradientUnits="objectBoundingBox"><stop stop-color="#272727"></stop><stop offset="1" stop-color="#000000"></stop></radialGradient><radialGradient id="«r3c»" cx="0" cy="0" r="1" gradientUnits="userSpaceOnUse" gradientTransform="translate(256) rotate(90) scale(512)"><stop stop-color="white"></stop><stop offset="1" stop-color="white" stop-opacity="0"></stop></radialGradient></defs><svg xmlns="http://www.w3.org/2000/svg" width="352" height="352" fill="none" viewBox="0 0 96 96" x="85" y="80" alignment-baseline="middle" style="color: rgb(230, 230, 230);"><g clip-path="url(#zed_logo_dark__a)"><path fill="#ffff" fill-rule="evenodd" d="M9 6a3 3 0 0 0-3 3v66H0V9a9 9 0 0 1 9-9h80.379c4.009 0 6.016 4.847 3.182 7.682L43.055 57.187H57V51h6v7.688a4.5 4.5 0 0 1-4.5 4.5H37.055L26.743 73.5H73.5V36h6v37.5a6 6 0 0 1-6 6H20.743L10.243 90H87a3 3 0 0 0 3-3V21h6v66a9 9 0 0 1-9 9H6.621c-4.009 0-6.016-4.847-3.182-7.682L52.757 39H39v6h-6v-7.5a4.5 4.5 0 0 1 4.5-4.5h21.257l10.5-10.5H22.5V60h-6V22.5a6 6 0 0 1 6-6h52.757L85.757 6H9Z" clip-rule="evenodd"></path></g><defs><clipPath id="zed_logo_dark__a"><path fill="#fff" d="M0 0h96v96H0z"></path></clipPath></defs></svg></svg>